<svg xmlns="http://www.w3.org/2000/svg" width="960" height="500" viewBox="0 0 960 500" font-family="system-ui,Arial">
<rect width="960" height="500" fill="#ffffff"/>
<text x="70" y="28" font-size="17" font-weight="700" fill="#111">Final best entry+exit (Rs 20L, log scale)</text>
<line x1="70" y1="411.1" x2="760" y2="411.1" stroke="#e5e7eb"/>
<text x="62" y="415.1" font-size="11" fill="#6b7280" text-anchor="end">₹20L</text>
<line x1="70" y1="342.4" x2="760" y2="342.4" stroke="#e5e7eb"/>
<text x="62" y="346.4" font-size="11" fill="#6b7280" text-anchor="end">₹50L</text>
<line x1="70" y1="290.5" x2="760" y2="290.5" stroke="#e5e7eb"/>
<text x="62" y="294.5" font-size="11" fill="#6b7280" text-anchor="end">₹1cr</text>
<line x1="70" y1="238.5" x2="760" y2="238.5" stroke="#e5e7eb"/>
<text x="62" y="242.5" font-size="11" fill="#6b7280" text-anchor="end">₹2cr</text>
<line x1="70" y1="169.9" x2="760" y2="169.9" stroke="#e5e7eb"/>
<text x="62" y="173.9" font-size="11" fill="#6b7280" text-anchor="end">₹5cr</text>
<line x1="70" y1="117.9" x2="760" y2="117.9" stroke="#e5e7eb"/>
<text x="62" y="121.9" font-size="11" fill="#6b7280" text-anchor="end">₹10cr</text>
<line x1="70" y1="66.0" x2="760" y2="66.0" stroke="#e5e7eb"/>
<text x="62" y="70.0" font-size="11" fill="#6b7280" text-anchor="end">₹20cr</text>
<line x1="123.7" y1="54" x2="123.7" y2="454" stroke="#f3f4f6"/>
<text x="123.7" y="472.0" font-size="11" fill="#6b7280" text-anchor="middle">2010</text>
<line x1="199.9" y1="54" x2="199.9" y2="454" stroke="#f3f4f6"/>
<text x="199.9" y="472.0" font-size="11" fill="#6b7280" text-anchor="middle">2012</text>
<line x1="276.1" y1="54" x2="276.1" y2="454" stroke="#f3f4f6"/>
<text x="276.1" y="472.0" font-size="11" fill="#6b7280" text-anchor="middle">2014</text>
<line x1="352.3" y1="54" x2="352.3" y2="454" stroke="#f3f4f6"/>
<text x="352.3" y="472.0" font-size="11" fill="#6b7280" text-anchor="middle">2016</text>
<line x1="428.5" y1="54" x2="428.5" y2="454" stroke="#f3f4f6"/>
<text x="428.5" y="472.0" font-size="11" fill="#6b7280" text-anchor="middle">2018</text>
<line x1="504.7" y1="54" x2="504.7" y2="454" stroke="#f3f4f6"/>
<text x="504.7" y="472.0" font-size="11" fill="#6b7280" text-anchor="middle">2020</text>
<line x1="580.9" y1="54" x2="580.9" y2="454" stroke="#f3f4f6"/>
<text x="580.9" y="472.0" font-size="11" fill="#6b7280" text-anchor="middle">2022</text>
<line x1="657.0" y1="54" x2="657.0" y2="454" stroke="#f3f4f6"/>
<text x="657.0" y="472.0" font-size="11" fill="#6b7280" text-anchor="middle">2024</text>
<line x1="733.3" y1="54" x2="733.3" y2="454" stroke="#f3f4f6"/>
<text x="733.3" y="472.0" font-size="11" fill="#6b7280" text-anchor="middle">2026</text>
<polyline points="70.0,411.1 70.7,411.1 71.5,411.1 72.2,410.9 72.9,411.1 73.7,411.2 74.4,411.2 75.1,410.8 75.8,412.0 76.6,412.0 77.3,412.3 78.0,412.3 78.8,412.3 79.5,412.3 80.2,412.3 81.0,412.3 81.7,412.3 82.4,412.3 83.1,412.3 83.9,412.3 84.6,412.4 85.3,412.6 86.1,412.6 86.8,412.6 87.5,412.6 88.3,412.6 89.0,412.6 89.7,412.6 90.4,412.6 91.2,412.8 91.9,412.8 92.6,412.6 93.4,412.6 94.1,412.7 94.8,412.4 95.6,412.5 96.3,412.4 97.0,412.2 97.7,412.4 98.5,412.5 99.2,410.2 99.9,408.3 100.7,404.0 101.4,405.4 102.1,407.0 102.9,404.4 103.6,403.4 104.3,408.0 105.0,406.0 105.8,404.4 106.5,401.6 107.2,404.2 108.0,402.7 108.7,403.1 109.4,401.2 110.2,402.0 110.9,400.8 111.6,399.2 112.3,398.2 113.1,396.8 113.8,395.6 114.5,392.2 115.3,392.2 116.0,395.5 116.7,393.2 117.5,391.7 118.2,391.7 118.9,391.5 119.7,388.9 120.4,388.4 121.1,388.5 121.8,387.9 122.6,387.1 123.3,385.4 124.0,381.5 124.8,383.2 125.5,385.9 126.2,386.5 127.0,385.9 127.7,386.3 128.4,387.6 129.1,385.2 129.9,383.5 130.6,382.4 131.3,382.7 132.1,382.6 132.8,381.1 133.5,380.3 134.3,379.3 135.0,379.1 135.7,380.5 136.4,379.6 137.2,381.8 137.9,381.3 138.6,379.6 139.4,378.8 140.1,376.5 140.8,370.8 141.6,370.0 142.3,367.6 143.0,367.2 143.7,367.1 144.5,366.4 145.2,366.0 145.9,365.5 146.7,364.2 147.4,364.7 148.1,362.8 148.9,360.7 149.6,360.5 150.3,359.9 151.0,358.4 151.8,358.1 152.5,358.5 153.2,358.3 154.0,357.9 154.7,355.3 155.4,356.5 156.2,358.8 156.9,361.9 157.6,360.4 158.3,362.0 159.1,362.0 159.8,361.8 160.5,360.7 161.3,361.9 162.0,362.7 162.7,362.5 163.5,363.6 164.2,364.6 164.9,364.3 165.7,364.3 166.4,364.3 167.1,364.3 167.8,364.2 168.6,364.7 169.3,364.4 170.0,364.2 170.8,363.9 171.5,364.4 172.2,364.0 173.0,362.9 173.7,363.9 174.4,363.8 175.1,363.9 175.9,364.1 176.6,363.4 177.3,362.9 178.1,362.7 178.8,362.6 179.5,360.1 180.3,359.6 181.0,358.5 181.7,356.6 182.4,356.5 183.2,358.9 183.9,358.3 184.6,361.4 185.4,361.3 186.1,359.8 186.8,359.0 187.6,359.6 188.3,360.0 189.0,360.9 189.7,362.2 190.5,361.3 191.2,361.2 191.9,360.3 192.7,359.9 193.4,360.0 194.1,363.6 194.9,363.8 195.6,363.5 196.3,364.1 197.0,365.6 197.8,366.1 198.5,365.9 199.2,366.0 200.0,365.8 200.7,365.8 201.4,365.6 202.2,365.6 202.9,365.0 203.6,363.6 204.3,365.0 205.1,363.8 205.8,363.1 206.5,362.9 207.3,362.0 208.0,360.5 208.7,359.7 209.5,360.8 210.2,360.8 210.9,361.6 211.7,363.3 212.4,363.1 213.1,363.6 213.8,363.6 214.6,363.8 215.3,364.0 216.0,365.0 216.8,365.1 217.5,365.0 218.2,364.3 219.0,364.9 219.7,364.4 220.4,365.1 221.1,363.5 221.9,362.8 222.6,362.9 223.3,363.2 224.1,363.8 224.8,363.0 225.5,361.8 226.3,362.0 227.0,360.3 227.7,359.5 228.4,359.2 229.2,358.5 229.9,357.9 230.6,357.9 231.4,356.6 232.1,356.7 232.8,357.5 233.6,355.2 234.3,353.7 235.0,354.4 235.7,353.4 236.5,353.2 237.2,350.9 237.9,352.3 238.7,352.3 239.4,353.1 240.1,352.4 240.9,353.7 241.6,353.7 242.3,353.3 243.0,353.9 243.8,353.1 244.5,353.7 245.2,354.9 246.0,354.2 246.7,353.5 247.4,355.0 248.2,355.2 248.9,354.9 249.6,354.0 250.3,351.8 251.1,350.6 251.8,351.6 252.5,350.6 253.3,350.7 254.0,351.5 254.7,351.6 255.5,352.7 256.2,352.1 256.9,350.7 257.7,349.4 258.4,351.2 259.1,353.3 259.8,354.5 260.6,354.1 261.3,355.6 262.0,355.7 262.8,355.5 263.5,355.3 264.2,355.3 265.0,354.9 265.7,353.8 266.4,353.1 267.1,353.3 267.9,353.1 268.6,352.0 269.3,351.2 270.1,350.3 270.8,350.7 271.5,349.4 272.3,348.6 273.0,349.7 273.7,346.1 274.4,344.8 275.2,345.0 275.9,345.0 276.6,346.1 277.4,345.8 278.1,346.1 278.8,344.5 279.6,343.8 280.3,342.1 281.0,340.9 281.7,340.0 282.5,340.4 283.2,337.0 283.9,335.5 284.7,334.5 285.4,333.5 286.1,333.7 286.9,332.8 287.6,332.5 288.3,329.5 289.0,325.8 289.8,317.9 290.5,319.9 291.2,313.4 292.0,313.3 292.7,313.0 293.4,311.0 294.2,307.3 294.9,312.7 295.6,309.2 296.3,310.5 297.1,310.9 297.8,310.8 298.5,310.1 299.3,307.1 300.0,306.8 300.7,302.6 301.5,299.4 302.2,298.7 302.9,301.6 303.7,299.6 304.4,301.9 305.1,302.8 305.8,300.8 306.6,299.0 307.3,296.7 308.0,296.4 308.8,293.6 309.5,293.2 310.2,289.4 311.0,292.1 311.7,293.4 312.4,293.5 313.1,290.3 313.9,290.4 314.6,291.1 315.3,292.1 316.1,292.9 316.8,294.6 317.5,293.0 318.3,291.2 319.0,292.1 319.7,289.1 320.4,289.4 321.2,291.2 321.9,293.4 322.6,290.8 323.4,289.0 324.1,291.0 324.8,294.1 325.6,293.8 326.3,294.6 327.0,293.9 327.7,293.9 328.5,293.7 329.2,295.6 329.9,295.4 330.7,294.3 331.4,293.3 332.1,291.5 332.9,290.3 333.6,288.7 334.3,287.9 335.0,283.4 335.8,281.4 336.5,281.9 337.2,280.7 338.0,284.4 338.7,285.2 339.4,285.0 340.2,284.5 340.9,285.1 341.6,285.0 342.3,285.4 343.1,284.3 343.8,283.4 344.5,283.9 345.3,285.3 346.0,284.2 346.7,283.9 347.5,282.5 348.2,281.8 348.9,284.4 349.7,281.1 350.4,280.9 351.1,279.7 351.8,280.7 352.6,286.6 353.3,288.5 354.0,287.9 354.8,288.7 355.5,290.1 356.2,290.0 357.0,290.3 357.7,290.1 358.4,289.9 359.1,289.4 359.9,289.6 360.6,289.4 361.3,289.0 362.1,288.3 362.8,288.2 363.5,288.0 364.3,288.0 365.0,284.8 365.7,286.5 366.4,284.9 367.2,284.5 367.9,282.4 368.6,282.0 369.4,282.7 370.1,278.6 370.8,277.5 371.6,278.1 372.3,277.0 373.0,275.5 373.7,274.9 374.5,275.4 375.2,274.4 375.9,275.8 376.7,273.1 377.4,271.5 378.1,271.8 378.9,271.4 379.6,272.8 380.3,269.6 381.0,269.3 381.8,268.4 382.5,268.3 383.2,270.7 384.0,271.7 384.7,274.4 385.4,274.1 386.2,273.1 386.9,270.7 387.6,270.5 388.3,272.4 389.1,272.5 389.8,272.1 390.5,271.7 391.3,270.7 392.0,268.8 392.7,268.2 393.5,266.2 394.2,268.2 394.9,268.7 395.7,267.7 396.4,267.4 397.1,265.6 397.8,265.1 398.6,264.4 399.3,262.9 400.0,262.1 400.8,261.0 401.5,260.4 402.2,259.9 403.0,259.3 403.7,260.8 404.4,261.5 405.1,260.6 405.9,259.2 406.6,257.8 407.3,260.0 408.1,259.6 408.8,256.9 409.5,257.6 410.3,256.5 411.0,256.7 411.7,256.0 412.4,259.5 413.2,257.2 413.9,256.8 414.6,252.6 415.4,250.7 416.1,245.5 416.8,244.5 417.6,245.3 418.3,239.1 419.0,237.6 419.7,237.9 420.5,236.0 421.2,230.3 421.9,230.7 422.7,230.3 423.4,230.4 424.1,230.4 424.9,230.0 425.6,230.0 426.3,226.0 427.0,223.8 427.8,219.3 428.5,216.4 429.2,218.4 430.0,216.5 430.7,224.0 431.4,225.0 432.2,225.0 432.9,225.0 433.6,224.4 434.3,226.0 435.1,226.0 435.8,228.0 436.5,227.8 437.3,227.1 438.0,226.1 438.7,224.9 439.5,223.3 440.2,223.6 440.9,223.4 441.7,224.1 442.4,223.6 443.1,223.8 443.8,223.6 444.6,222.6 445.3,223.5 446.0,224.0 446.8,223.8 447.5,223.1 448.2,223.4 449.0,222.5 449.7,221.7 450.4,222.2 451.1,221.1 451.9,220.0 452.6,218.6 453.3,219.0 454.1,219.7 454.8,222.6 455.5,223.6 456.3,223.6 457.0,223.6 457.7,223.6 458.4,223.7 459.2,223.6 459.9,223.2 460.6,222.9 461.4,222.9 462.1,223.3 462.8,223.5 463.6,223.6 464.3,223.3 465.0,223.5 465.7,223.5 466.5,222.8 467.2,223.6 467.9,223.6 468.7,223.6 469.4,223.5 470.1,223.7 470.9,223.7 471.6,223.6 472.3,223.6 473.0,223.6 473.8,223.5 474.5,223.2 475.2,223.2 476.0,223.3 476.7,223.0 477.4,223.2 478.2,223.0 478.9,223.4 479.6,223.1 480.3,222.8 481.1,222.2 481.8,222.7 482.5,222.7 483.3,223.1 484.0,223.3 484.7,223.3 485.5,223.7 486.2,224.0 486.9,224.1 487.7,224.8 488.4,224.6 489.1,224.7 489.8,224.9 490.6,223.8 491.3,224.0 492.0,223.7 492.8,223.7 493.5,223.4 494.2,224.0 495.0,224.3 495.7,223.5 496.4,223.0 497.1,222.0 497.9,222.1 498.6,222.4 499.3,223.8 500.1,223.7 500.8,223.3 501.5,223.0 502.3,222.8 503.0,222.3 503.7,221.4 504.4,220.8 505.2,219.0 505.9,217.9 506.6,220.8 507.4,218.4 508.1,218.5 508.8,217.1 509.6,221.5 510.3,221.5 511.0,224.8 511.7,228.4 512.5,231.6 513.2,231.6 513.9,231.6 514.7,231.8 515.4,231.7 516.1,231.3 516.9,231.8 517.6,231.7 518.3,231.5 519.0,231.5 519.8,231.2 520.5,231.5 521.2,231.2 522.0,231.6 522.7,231.2 523.4,229.5 524.2,229.0 524.9,226.2 525.6,223.7 526.3,220.8 527.1,221.2 527.8,218.0 528.5,217.1 529.3,217.5 530.0,218.1 530.7,213.3 531.5,217.1 532.2,214.8 532.9,216.7 533.7,215.9 534.4,214.2 535.1,214.1 535.8,212.9 536.6,210.6 537.3,210.7 538.0,208.3 538.8,207.2 539.5,206.2 540.2,205.2 541.0,204.5 541.7,201.5 542.4,197.9 543.1,199.3 543.9,200.4 544.6,201.9 545.3,197.0 546.1,191.9 546.8,187.7 547.5,184.1 548.3,179.9 549.0,176.6 549.7,178.8 550.4,181.1 551.2,178.5 551.9,176.6 552.6,178.0 553.4,177.3 554.1,174.6 554.8,170.5 555.6,172.7 556.3,169.3 557.0,167.7 557.7,167.3 558.5,165.0 559.2,164.7 559.9,163.6 560.7,158.5 561.4,156.8 562.1,153.9 562.9,155.0 563.6,154.0 564.3,152.6 565.0,152.7 565.8,156.0 566.5,154.5 567.2,153.1 568.0,151.9 568.7,150.3 569.4,150.7 570.2,150.4 570.9,147.8 571.6,146.2 572.3,149.8 573.1,151.1 573.8,148.0 574.5,146.7 575.3,146.3 576.0,147.6 576.7,145.5 577.5,144.5 578.2,146.0 578.9,146.5 579.7,145.1 580.4,142.6 581.1,141.5 581.8,141.1 582.6,142.2 583.3,141.0 584.0,143.1 584.8,144.8 585.5,146.9 586.2,146.0 587.0,145.7 587.7,144.5 588.4,143.6 589.1,142.2 589.9,138.3 590.6,137.0 591.3,133.7 592.1,135.5 592.8,139.1 593.5,142.1 594.3,139.4 595.0,143.1 595.7,143.0 596.4,142.7 597.2,143.6 597.9,144.1 598.6,143.9 599.4,143.3 600.1,143.1 600.8,141.9 601.6,141.9 602.3,141.0 603.0,140.1 603.7,139.5 604.5,137.7 605.2,136.3 605.9,135.2 606.7,132.7 607.4,133.6 608.1,133.4 608.9,130.2 609.6,130.7 610.3,129.8 611.0,128.5 611.8,126.3 612.5,125.9 613.2,124.4 614.0,124.4 614.7,122.2 615.4,123.2 616.2,122.6 616.9,132.5 617.6,130.1 618.3,130.1 619.1,130.3 619.8,130.1 620.5,133.3 621.3,133.1 622.0,133.0 622.7,132.7 623.5,133.0 624.2,132.4 624.9,130.3 625.7,130.4 626.4,131.1 627.1,129.3 627.8,127.5 628.6,127.7 629.3,126.8 630.0,126.5 630.8,124.6 631.5,124.4 632.2,123.4 633.0,121.9 633.7,118.6 634.4,117.2 635.1,115.7 635.9,116.4 636.6,112.1 637.3,109.8 638.1,105.5 638.8,101.3 639.5,100.0 640.3,99.4 641.0,95.0 641.7,93.1 642.4,89.9 643.2,87.0 643.9,84.5 644.6,86.9 645.4,88.8 646.1,87.7 646.8,87.4 647.6,86.5 648.3,86.4 649.0,89.9 649.7,88.3 650.5,84.8 651.2,81.6 651.9,81.7 652.7,79.7 653.4,79.9 654.1,77.8 654.9,76.8 655.6,74.5 656.3,71.2 657.0,69.5 657.8,67.0 658.5,64.3 659.2,60.4 660.0,61.9 660.7,60.6 661.4,60.5 662.2,59.4 662.9,61.5 663.6,65.2 664.3,65.0 665.1,64.9 665.8,63.6 666.5,62.8 667.3,61.3 668.0,60.7 668.7,60.3 669.5,61.7 670.2,61.7 670.9,62.1 671.7,62.2 672.4,61.6 673.1,61.1 673.8,60.4 674.6,59.9 675.3,60.2 676.0,60.1 676.8,60.4 677.5,59.8 678.2,58.7 679.0,58.7 679.7,59.0 680.4,58.7 681.1,58.4 681.9,58.4 682.6,56.8 683.3,56.3 684.1,56.6 684.8,57.4 685.5,57.1 686.3,56.5 687.0,58.1 687.7,56.6 688.4,55.4 689.2,56.0 689.9,55.0 690.6,54.6 691.4,54.2 692.1,54.5 692.8,54.5 693.6,54.3 694.3,54.0 695.0,55.2 695.7,55.2 696.5,55.3 697.2,55.4 697.9,55.6 698.7,56.5 699.4,56.5 700.1,56.5 700.9,56.5 701.6,56.5 702.3,56.5 703.0,56.9 703.8,56.8 704.5,57.0 705.2,57.0 706.0,57.0 706.7,57.0 707.4,56.9 708.2,56.8 708.9,56.8 709.6,56.6 710.3,56.4 711.1,56.2 711.8,56.1 712.5,56.1 713.3,56.1 714.0,56.1 714.7,56.1 715.5,56.1 716.2,56.1 716.9,56.2 717.7,56.0 718.4,56.1 719.1,56.1 719.8,56.2 720.6,56.2 721.3,56.3 722.0,56.2 722.8,56.3 723.5,56.2 724.2,56.4 725.0,56.3 725.7,56.3 726.4,56.3 727.1,56.3 727.9,55.7 728.6,55.8 729.3,55.7 730.1,55.5 730.8,55.4 731.5,55.5 732.3,55.5 733.0,55.5 733.7,55.5 734.4,55.8 735.2,55.8 735.9,55.5 736.6,55.4 737.4,55.6 738.1,55.8 738.8,55.7 739.6,55.8 740.3,55.7 741.0,55.8 741.7,55.7 742.5,55.6 743.2,55.6 743.9,55.4 744.7,55.4 745.4,55.3 746.1,55.3 746.9,55.3 747.6,55.6 748.3,55.5 749.0,55.7 749.8,55.6 750.5,55.6 751.2,55.7 752.0,55.7 752.7,55.7 753.4,55.7 754.2,55.9 754.9,55.9 755.6,55.9 756.3,55.9 757.1,55.9 757.8,55.9 758.5,55.9 759.3,55.9" fill="none" stroke="#2563eb" stroke-width="2.2"/>
<rect x="776" y="51" width="14" height="14" rx="3" fill="#2563eb"/>
<text x="796" y="63" font-size="12" fill="#111">BEST: 10% trail · 1000-10000cr (Calmar 1.62)</text>
<text x="796" y="78" font-size="11" fill="#6b7280">₹23cr</text>
<polyline points="70.0,411.1 70.7,413.0 71.5,412.4 72.2,412.4 72.9,414.8 73.7,416.2 74.4,420.7 75.1,424.1 75.8,437.1 76.6,440.9 77.3,452.8 78.0,446.1 78.8,443.2 79.5,446.8 80.2,451.6 81.0,450.7 81.7,451.0 82.4,445.9 83.1,441.4 83.9,446.5 84.6,441.0 85.3,446.1 86.1,447.3 86.8,451.4 87.5,446.6 88.3,447.6 89.0,444.8 89.7,450.2 90.4,450.0 91.2,454.0 91.9,451.7 92.6,449.0 93.4,442.2 94.1,439.5 94.8,436.0 95.6,434.1 96.3,431.9 97.0,432.6 97.7,429.0 98.5,428.0 99.2,415.3 99.9,410.5 100.7,407.8 101.4,408.7 102.1,413.0 102.9,411.7 103.6,410.7 104.3,417.8 105.0,411.3 105.8,408.2 106.5,406.7 107.2,408.7 108.0,407.0 108.7,408.0 109.4,404.7 110.2,405.3 110.9,403.8 111.6,401.3 112.3,401.4 113.1,400.0 113.8,401.6 114.5,398.6 115.3,400.2 116.0,405.0 116.7,403.1 117.5,400.0 118.2,399.4 118.9,400.9 119.7,397.8 120.4,397.7 121.1,399.3 121.8,396.7 122.6,396.2 123.3,394.9 124.0,393.9 124.8,396.5 125.5,399.3 126.2,401.7 127.0,399.9 127.7,400.3 128.4,399.8 129.1,397.3 129.9,397.6 130.6,396.3 131.3,396.5 132.1,396.0 132.8,394.8 133.5,396.0 134.3,395.5 135.0,395.6 135.7,398.8 136.4,397.8 137.2,400.3 137.9,398.7 138.6,397.4 139.4,397.7 140.1,396.2 140.8,395.6 141.6,395.3 142.3,394.0 143.0,393.5 143.7,392.9 144.5,393.7 145.2,392.7 145.9,392.1 146.7,391.2 147.4,392.5 148.1,391.3 148.9,389.4 149.6,387.3 150.3,386.4 151.0,385.2 151.8,384.9 152.5,385.5 153.2,385.2 154.0,385.8 154.7,382.5 155.4,385.2 156.2,387.7 156.9,390.4 157.6,387.3 158.3,389.9 159.1,388.6 159.8,387.9 160.5,386.3 161.3,389.3 162.0,392.2 162.7,391.8 163.5,394.5 164.2,396.0 164.9,397.8 165.7,395.6 166.4,398.0 167.1,394.9 167.8,396.0 168.6,396.8 169.3,393.4 170.0,391.0 170.8,390.3 171.5,390.4 172.2,389.9 173.0,391.4 173.7,394.0 174.4,393.8 175.1,394.8 175.9,394.8 176.6,394.0 177.3,394.3 178.1,395.7 178.8,395.1 179.5,393.0 180.3,392.4 181.0,393.1 181.7,392.6 182.4,394.6 183.2,398.1 183.9,399.9 184.6,403.6 185.4,405.0 186.1,400.8 186.8,400.3 187.6,400.2 188.3,403.1 189.0,402.6 189.7,403.8 190.5,400.5 191.2,401.7 191.9,398.0 192.7,398.5 193.4,400.3 194.1,404.6 194.9,407.1 195.6,402.9 196.3,405.4 197.0,409.1 197.8,408.8 198.5,410.1 199.2,408.1 200.0,405.5 200.7,403.0 201.4,400.6 202.2,398.7 202.9,397.5 203.6,394.8 204.3,397.0 205.1,397.5 205.8,397.8 206.5,398.0 207.3,398.5 208.0,398.1 208.7,397.4 209.5,399.0 210.2,398.0 210.9,399.7 211.7,401.2 212.4,403.5 213.1,404.3 213.8,403.8 214.6,405.0 215.3,401.9 216.0,401.3 216.8,401.0 217.5,399.0 218.2,398.1 219.0,399.3 219.7,399.7 220.4,401.6 221.1,399.8 221.9,398.7 222.6,398.1 223.3,398.0 224.1,399.8 224.8,398.6 225.5,395.9 226.3,394.1 227.0,393.3 227.7,392.5 228.4,393.2 229.2,393.2 229.9,393.7 230.6,393.2 231.4,393.2 232.1,394.1 232.8,393.8 233.6,390.5 234.3,389.7 235.0,390.1 235.7,390.3 236.5,389.5 237.2,387.8 237.9,388.8 238.7,387.8 239.4,388.2 240.1,388.9 240.9,390.3 241.6,390.9 242.3,391.3 243.0,393.3 243.8,390.7 244.5,391.7 245.2,394.9 246.0,394.4 246.7,395.6 247.4,395.8 248.2,392.9 248.9,391.8 249.6,390.7 250.3,389.0 251.1,387.8 251.8,390.3 252.5,390.4 253.3,391.3 254.0,392.9 254.7,394.7 255.5,393.1 256.2,392.7 256.9,391.2 257.7,391.1 258.4,393.2 259.1,396.5 259.8,397.6 260.6,398.1 261.3,398.8 262.0,398.9 262.8,396.4 263.5,394.2 264.2,392.3 265.0,394.1 265.7,393.1 266.4,390.8 267.1,390.0 267.9,390.2 268.6,388.1 269.3,389.7 270.1,390.5 270.8,391.2 271.5,389.0 272.3,388.0 273.0,389.2 273.7,387.5 274.4,386.7 275.2,387.7 275.9,388.3 276.6,387.8 277.4,387.9 278.1,389.9 278.8,390.0 279.6,390.4 280.3,389.1 281.0,387.7 281.7,384.9 282.5,385.3 283.2,385.0 283.9,382.5 284.7,382.0 285.4,380.8 286.1,380.9 286.9,380.7 287.6,381.6 288.3,380.0 289.0,376.2 289.8,372.7 290.5,374.3 291.2,370.2 292.0,371.1 292.7,371.3 293.4,370.8 294.2,368.1 294.9,371.9 295.6,369.5 296.3,368.9 297.1,370.4 297.8,370.9 298.5,369.1 299.3,367.5 300.0,367.4 300.7,365.7 301.5,364.9 302.2,365.1 302.9,367.0 303.7,367.0 304.4,367.8 305.1,368.7 305.8,366.2 306.6,363.7 307.3,363.3 308.0,362.6 308.8,361.9 309.5,361.1 310.2,360.9 311.0,363.7 311.7,363.8 312.4,363.8 313.1,361.7 313.9,362.6 314.6,360.6 315.3,358.4 316.1,358.5 316.8,359.9 317.5,358.4 318.3,358.0 319.0,358.0 319.7,357.0 320.4,359.2 321.2,359.9 321.9,361.9 322.6,359.6 323.4,357.6 324.1,359.2 324.8,362.1 325.6,363.0 326.3,363.2 327.0,362.1 327.7,360.6 328.5,360.7 329.2,363.5 329.9,364.9 330.7,362.6 331.4,361.2 332.1,360.2 332.9,360.9 333.6,358.7 334.3,359.4 335.0,359.1 335.8,358.3 336.5,359.0 337.2,360.6 338.0,363.6 338.7,366.7 339.4,365.6 340.2,364.2 340.9,364.9 341.6,364.0 342.3,362.1 343.1,361.6 343.8,361.2 344.5,362.9 345.3,364.1 346.0,365.5 346.7,364.5 347.5,363.7 348.2,364.8 348.9,366.6 349.7,365.0 350.4,364.0 351.1,362.9 351.8,365.9 352.6,368.6 353.3,369.1 354.0,367.6 354.8,368.5 355.5,373.9 356.2,371.8 357.0,373.6 357.7,368.8 358.4,368.6 359.1,367.8 359.9,366.7 360.6,366.4 361.3,367.6 362.1,364.9 362.8,364.3 363.5,364.8 364.3,365.7 365.0,364.8 365.7,365.6 366.4,362.4 367.2,361.9 367.9,362.0 368.6,361.9 369.4,362.7 370.1,359.9 370.8,359.8 371.6,358.2 372.3,357.8 373.0,356.8 373.7,356.4 374.5,356.6 375.2,356.1 375.9,356.7 376.7,355.0 377.4,354.3 378.1,355.2 378.9,354.5 379.6,356.1 380.3,354.8 381.0,355.7 381.8,354.6 382.5,355.1 383.2,357.3 384.0,358.9 384.7,361.2 385.4,360.6 386.2,360.8 386.9,359.1 387.6,360.5 388.3,362.2 389.1,360.4 389.8,359.3 390.5,357.8 391.3,358.1 392.0,355.5 392.7,354.4 393.5,353.8 394.2,353.7 394.9,352.8 395.7,353.1 396.4,353.0 397.1,350.8 397.8,351.1 398.6,350.3 399.3,349.8 400.0,349.8 400.8,349.7 401.5,348.2 402.2,348.4 403.0,347.5 403.7,347.8 404.4,347.2 405.1,346.5 405.9,346.1 406.6,346.5 407.3,347.0 408.1,347.2 408.8,345.9 409.5,344.4 410.3,344.2 411.0,343.5 411.7,343.3 412.4,346.3 413.2,344.8 413.9,344.7 414.6,343.5 415.4,343.5 416.1,342.3 416.8,343.6 417.6,344.8 418.3,343.2 419.0,341.9 419.7,341.9 420.5,340.5 421.2,339.3 421.9,340.1 422.7,340.3 423.4,339.4 424.1,340.9 424.9,339.8 425.6,339.6 426.3,337.9 427.0,337.4 427.8,336.8 428.5,336.0 429.2,335.6 430.0,334.9 430.7,338.1 431.4,339.3 432.2,339.5 432.9,339.3 433.6,339.5 434.3,341.5 435.1,341.4 435.8,343.1 436.5,342.1 437.3,340.0 438.0,339.2 438.7,338.6 439.5,337.8 440.2,338.6 440.9,338.0 441.7,339.7 442.4,339.6 443.1,339.3 443.8,338.8 444.6,338.6 445.3,339.0 446.0,340.1 446.8,339.8 447.5,338.5 448.2,339.0 449.0,336.7 449.7,335.9 450.4,335.6 451.1,335.2 451.9,334.6 452.6,333.6 453.3,334.4 454.1,335.1 454.8,337.9 455.5,340.4 456.3,344.6 457.0,343.4 457.7,344.4 458.4,346.4 459.2,342.2 459.9,341.8 460.6,341.4 461.4,342.4 462.1,340.5 462.8,341.9 463.6,340.6 464.3,340.7 465.0,340.1 465.7,340.9 466.5,340.6 467.2,340.2 467.9,341.4 468.7,340.9 469.4,341.1 470.1,342.8 470.9,342.1 471.6,341.1 472.3,339.7 473.0,337.3 473.8,337.3 474.5,336.1 475.2,335.9 476.0,336.0 476.7,335.5 477.4,335.9 478.2,336.4 478.9,339.0 479.6,338.7 480.3,335.6 481.1,335.0 481.8,335.5 482.5,336.0 483.3,336.7 484.0,336.1 484.7,336.1 485.5,337.7 486.2,338.9 486.9,339.8 487.7,341.9 488.4,341.0 489.1,341.5 489.8,343.2 490.6,341.6 491.3,342.1 492.0,341.0 492.8,339.5 493.5,338.2 494.2,340.6 495.0,340.1 495.7,337.5 496.4,337.9 497.1,335.7 497.9,335.9 498.6,336.0 499.3,335.9 500.1,334.9 500.8,336.0 501.5,335.1 502.3,334.2 503.0,334.2 503.7,333.9 504.4,333.7 505.2,332.6 505.9,332.9 506.6,334.5 507.4,333.5 508.1,333.8 508.8,333.8 509.6,339.5 510.3,340.9 511.0,348.7 511.7,358.5 512.5,360.2 513.2,364.2 513.9,355.6 514.7,353.9 515.4,355.1 516.1,350.1 516.9,354.5 517.6,355.0 518.3,355.9 519.0,351.9 519.8,347.5 520.5,348.4 521.2,346.5 522.0,345.2 522.7,344.0 523.4,343.0 524.2,342.3 524.9,340.7 525.6,341.1 526.3,339.8 527.1,339.6 527.8,337.9 528.5,336.2 529.3,338.3 530.0,337.8 530.7,336.9 531.5,340.1 532.2,337.6 532.9,335.4 533.7,336.4 534.4,335.2 535.1,336.7 535.8,333.2 536.6,330.6 537.3,329.4 538.0,328.3 538.8,326.5 539.5,325.2 540.2,324.0 541.0,324.2 541.7,322.9 542.4,320.3 543.1,320.3 543.9,320.7 544.6,324.3 545.3,318.1 546.1,316.7 546.8,317.1 547.5,318.7 548.3,316.5 549.0,316.2 549.7,317.9 550.4,318.9 551.2,316.9 551.9,316.6 552.6,318.0 553.4,319.2 554.1,317.6 554.8,316.4 555.6,316.9 556.3,314.3 557.0,313.2 557.7,311.6 558.5,310.7 559.2,311.6 559.9,310.8 560.7,311.0 561.4,310.9 562.1,309.7 562.9,310.0 563.6,310.1 564.3,308.5 565.0,307.9 565.8,308.6 566.5,307.3 567.2,304.3 568.0,303.9 568.7,303.0 569.4,302.2 570.2,303.0 570.9,301.3 571.6,299.4 572.3,301.1 573.1,302.7 573.8,301.3 574.5,300.3 575.3,301.6 576.0,304.6 576.7,303.8 577.5,302.3 578.2,304.8 578.9,304.8 579.7,303.1 580.4,301.4 581.1,299.6 581.8,302.2 582.6,304.5 583.3,302.7 584.0,303.7 584.8,304.6 585.5,307.3 586.2,308.9 587.0,307.0 587.7,304.5 588.4,304.9 589.1,302.7 589.9,301.4 590.6,302.4 591.3,303.6 592.1,304.2 592.8,307.5 593.5,311.2 594.3,308.8 595.0,309.0 595.7,307.9 596.4,309.5 597.2,313.9 597.9,312.0 598.6,311.6 599.4,309.2 600.1,309.4 600.8,306.5 601.6,304.8 602.3,303.6 603.0,302.4 603.7,301.9 604.5,302.4 605.2,302.1 605.9,300.8 606.7,301.9 607.4,302.8 608.1,304.0 608.9,302.9 609.6,304.0 610.3,302.7 611.0,301.9 611.8,300.5 612.5,299.9 613.2,300.4 614.0,299.6 614.7,298.5 615.4,299.2 616.2,300.0 616.9,302.9 617.6,300.9 618.3,301.8 619.1,301.4 619.8,301.4 620.5,303.7 621.3,303.3 622.0,303.0 622.7,303.1 623.5,305.0 624.2,304.2 624.9,304.7 625.7,306.1 626.4,306.8 627.1,305.4 627.8,304.3 628.6,303.3 629.3,303.9 630.0,302.0 630.8,301.7 631.5,300.8 632.2,301.1 633.0,299.7 633.7,299.2 634.4,298.9 635.1,297.4 635.9,298.2 636.6,296.3 637.3,295.7 638.1,294.8 638.8,294.2 639.5,294.0 640.3,294.2 641.0,294.4 641.7,294.8 642.4,294.5 643.2,293.4 643.9,291.6 644.6,290.9 645.4,292.6 646.1,292.5 646.8,292.5 647.6,292.0 648.3,292.8 649.0,294.8 649.7,293.7 650.5,292.6 651.2,291.1 651.9,291.0 652.7,289.0 653.4,286.6 654.1,284.8 654.9,285.2 655.6,283.7 656.3,283.1 657.0,282.5 657.8,283.0 658.5,283.9 659.2,281.9 660.0,281.7 660.7,280.9 661.4,280.4 662.2,280.3 662.9,279.9 663.6,282.2 664.3,281.6 665.1,280.6 665.8,278.9 666.5,278.8 667.3,280.1 668.0,278.5 668.7,278.0 669.5,279.8 670.2,277.7 670.9,276.2 671.7,277.5 672.4,275.2 673.1,273.7 673.8,273.6 674.6,272.5 675.3,271.1 676.0,270.8 676.8,271.6 677.5,270.1 678.2,270.2 679.0,271.3 679.7,270.9 680.4,269.7 681.1,268.7 681.9,269.5 682.6,268.1 683.3,267.3 684.1,266.4 684.8,269.4 685.5,269.1 686.3,269.7 687.0,272.7 687.7,271.7 688.4,272.3 689.2,274.5 689.9,273.7 690.6,272.1 691.4,270.1 692.1,269.9 692.8,273.3 693.6,272.9 694.3,272.0 695.0,275.1 695.7,275.5 696.5,276.8 697.2,275.9 697.9,275.6 698.7,279.2 699.4,279.0 700.1,282.0 700.9,279.9 701.6,280.9 702.3,276.9 703.0,276.7 703.8,278.6 704.5,278.8 705.2,275.5 706.0,274.9 706.7,274.4 707.4,275.5 708.2,271.5 708.9,271.8 709.6,271.7 710.3,270.6 711.1,271.4 711.8,271.0 712.5,269.1 713.3,269.3 714.0,270.2 714.7,270.2 715.5,271.0 716.2,272.2 716.9,272.9 717.7,272.1 718.4,271.1 719.1,272.9 719.8,271.6 720.6,270.5 721.3,269.5 722.0,272.0 722.8,271.0 723.5,270.0 724.2,269.2 725.0,268.9 725.7,268.8 726.4,269.4 727.1,268.4 727.9,268.6 728.6,268.1 729.3,268.4 730.1,268.8 730.8,268.9 731.5,268.6 732.3,267.6 733.0,269.6 733.7,269.5 734.4,272.1 735.2,270.8 735.9,269.7 736.6,270.1 737.4,269.8 738.1,270.5 738.8,272.8 739.6,276.5 740.3,276.7 741.0,277.8 741.7,278.1 742.5,273.2 743.2,271.5 743.9,272.5 744.7,272.1 745.4,270.7 746.1,272.6 746.9,272.2 747.6,272.2 748.3,272.8 749.0,272.4 749.8,270.6 750.5,270.7 751.2,270.1 752.0,270.0 752.7,270.0 753.4,271.4 754.2,269.6 754.9,268.8 755.6,269.2 756.3,269.4 757.1,269.4 757.8,270.3 758.5,271.5 759.3,272.6 760.0,272.2" fill="none" stroke="#f59e0b" stroke-width="2.2"/>
<rect x="776" y="73" width="14" height="14" rx="3" fill="#f59e0b"/>
<text x="796" y="85" font-size="12" fill="#111">Nifty 500 buy&hold</text>
<text x="796" y="100" font-size="11" fill="#6b7280">₹1cr</text>
<text x="70" y="492" font-size="10.5" fill="#9ca3af">Log scale · ₹20L start · survivorship-biased universe · educational only</text>
</svg>