<svg xmlns="http://www.w3.org/2000/svg" width="960" height="500" viewBox="0 0 960 500" font-family="system-ui,Arial">
<rect width="960" height="500" fill="#ffffff"/>
<text x="70" y="28" font-size="17" font-weight="700" fill="#111">Monthly timeframe — 20%% trail (Rs 20L, log scale)</text>
<line x1="70" y1="412.1" x2="760" y2="412.1" stroke="#e5e7eb"/>
<text x="62" y="416.1" font-size="11" fill="#6b7280" text-anchor="end">₹20L</text>
<line x1="70" y1="328.5" x2="760" y2="328.5" stroke="#e5e7eb"/>
<text x="62" y="332.5" font-size="11" fill="#6b7280" text-anchor="end">₹50L</text>
<line x1="70" y1="265.3" x2="760" y2="265.3" stroke="#e5e7eb"/>
<text x="62" y="269.3" font-size="11" fill="#6b7280" text-anchor="end">₹1cr</text>
<line x1="70" y1="202.1" x2="760" y2="202.1" stroke="#e5e7eb"/>
<text x="62" y="206.1" font-size="11" fill="#6b7280" text-anchor="end">₹2cr</text>
<line x1="70" y1="118.5" x2="760" y2="118.5" stroke="#e5e7eb"/>
<text x="62" y="122.5" font-size="11" fill="#6b7280" text-anchor="end">₹5cr</text>
<line x1="70" y1="55.2" x2="760" y2="55.2" stroke="#e5e7eb"/>
<text x="62" y="59.2" font-size="11" fill="#6b7280" text-anchor="end">₹10cr</text>
<line x1="127.6" y1="54" x2="127.6" y2="454" stroke="#f3f4f6"/>
<text x="127.6" y="472.0" font-size="11" fill="#6b7280" text-anchor="middle">2010</text>
<line x1="204.2" y1="54" x2="204.2" y2="454" stroke="#f3f4f6"/>
<text x="204.2" y="472.0" font-size="11" fill="#6b7280" text-anchor="middle">2012</text>
<line x1="281.0" y1="54" x2="281.0" y2="454" stroke="#f3f4f6"/>
<text x="281.0" y="472.0" font-size="11" fill="#6b7280" text-anchor="middle">2014</text>
<line x1="357.6" y1="54" x2="357.6" y2="454" stroke="#f3f4f6"/>
<text x="357.6" y="472.0" font-size="11" fill="#6b7280" text-anchor="middle">2016</text>
<line x1="434.3" y1="54" x2="434.3" y2="454" stroke="#f3f4f6"/>
<text x="434.3" y="472.0" font-size="11" fill="#6b7280" text-anchor="middle">2018</text>
<line x1="510.9" y1="54" x2="510.9" y2="454" stroke="#f3f4f6"/>
<text x="510.9" y="472.0" font-size="11" fill="#6b7280" text-anchor="middle">2020</text>
<line x1="587.7" y1="54" x2="587.7" y2="454" stroke="#f3f4f6"/>
<text x="587.7" y="472.0" font-size="11" fill="#6b7280" text-anchor="middle">2022</text>
<line x1="664.3" y1="54" x2="664.3" y2="454" stroke="#f3f4f6"/>
<text x="664.3" y="472.0" font-size="11" fill="#6b7280" text-anchor="middle">2024</text>
<line x1="741.0" y1="54" x2="741.0" y2="454" stroke="#f3f4f6"/>
<text x="741.0" y="472.0" font-size="11" fill="#6b7280" text-anchor="middle">2026</text>
<polyline points="70.0,412.1 73.3,412.2 76.5,412.9 79.7,412.8 82.9,412.8 86.1,412.6 89.3,412.5 92.6,412.2 95.5,411.9 98.8,411.5 101.9,411.0 105.2,402.1 108.3,401.7 111.6,392.7 114.8,396.6 118.0,389.7 121.2,386.3 124.4,385.5 127.6,384.1 130.9,379.4 133.8,374.3 137.1,375.0 140.2,368.6 143.5,365.6 146.6,361.3 149.9,356.1 153.1,353.8 156.3,355.9 159.5,358.1 162.7,367.7 165.9,371.8 169.2,368.8 172.1,366.0 175.4,367.3 178.5,364.7 181.8,362.0 184.9,363.6 188.2,367.7 191.4,364.2 194.6,370.4 197.8,374.6 201.0,371.3 204.2,365.1 207.5,361.0 210.5,358.9 213.8,362.5 216.9,359.8 220.2,358.0 223.3,353.3 226.6,348.5 229.9,347.9 233.0,343.8 236.3,341.7 239.4,340.6 242.7,345.3 245.9,344.7 248.9,340.4 252.1,333.3 255.3,337.0 258.5,337.0 261.7,342.3 264.9,333.4 268.2,325.1 271.3,320.5 274.6,317.1 277.7,317.3 281.0,313.7 284.2,310.2 287.2,309.2 290.4,302.4 293.6,283.5 296.8,282.0 300.0,274.2 303.2,261.9 306.5,259.8 309.6,253.9 312.9,253.2 316.0,247.5 319.3,245.2 322.5,240.7 325.5,241.3 328.7,232.0 331.9,231.1 335.1,226.6 338.3,230.7 341.5,231.7 344.8,230.4 347.9,234.0 351.2,232.3 354.3,238.4 357.6,242.2 360.8,237.5 363.9,234.1 367.1,229.7 370.3,227.4 373.5,218.9 376.7,216.9 379.9,215.1 383.2,212.2 386.3,219.5 389.6,222.7 392.7,216.8 396.0,212.8 399.3,206.4 402.2,202.1 405.4,203.5 408.6,205.7 411.9,200.6 415.0,197.9 418.3,198.4 421.5,191.6 424.7,188.2 427.9,184.0 431.1,185.6 434.3,188.2 437.6,193.1 440.5,185.5 443.8,188.2 446.9,191.1 450.2,189.0 453.3,183.1 456.6,194.8 459.8,199.0 463.0,196.4 466.2,195.9 469.4,197.7 472.6,198.6 475.9,196.1 478.8,197.6 482.1,197.5 485.2,198.6 488.5,205.0 491.6,202.0 494.9,197.5 498.1,193.6 501.3,196.2 504.5,194.9 507.7,191.4 510.9,191.1 514.2,211.0 517.2,207.0 520.5,208.1 523.6,207.3 526.9,202.0 530.0,199.2 533.3,193.0 536.5,191.2 539.7,185.6 542.9,179.1 546.1,184.3 549.3,178.9 552.6,174.3 555.5,167.4 558.8,161.4 561.9,154.6 565.2,152.0 568.3,152.8 571.6,150.8 574.9,153.0 578.0,153.7 581.3,146.7 584.4,152.3 587.7,158.5 590.9,152.6 593.9,149.2 597.1,157.1 600.3,161.2 603.5,153.5 606.7,145.6 609.9,145.4 613.2,141.3 616.3,138.9 619.6,140.2 622.7,141.4 626.0,143.6 629.2,141.4 632.2,135.7 635.4,126.7 638.6,120.3 641.8,111.7 645.0,104.5 648.2,103.7 651.5,107.5 654.6,97.4 657.9,91.5 661.0,87.8 664.3,89.3 667.5,86.5 670.6,77.7 673.8,70.3 677.0,60.4 680.2,57.4 683.4,58.2 686.6,54.0 689.9,59.0 693.0,59.4 696.3,59.3 699.4,71.6 702.7,80.4 705.9,78.2 708.9,78.1 712.1,77.3 715.3,70.9 718.5,71.6 721.7,74.0 724.9,73.9 728.2,70.6 731.3,70.1 734.6,69.0 737.7,70.1 741.0,66.4 744.3,75.4 747.2,67.8 750.4,64.8 753.6,62.2 756.9,61.5 760.0,61.0" fill="none" stroke="#9ca3af" stroke-width="2.2"/>
<rect x="776" y="51" width="14" height="14" rx="3" fill="#9ca3af"/>
<text x="796" y="63" font-size="12" fill="#111">Monthly base (Calmar 0.91)</text>
<text x="796" y="78" font-size="11" fill="#6b7280">₹9cr</text>
<polyline points="70.0,412.1 73.3,412.1 76.5,412.1 79.7,412.1 82.9,412.1 86.1,412.1 89.3,412.1 92.6,412.1 95.5,412.1 98.8,412.0 101.9,412.3 105.2,403.5 108.3,402.7 111.6,393.4 114.8,397.4 118.0,390.3 121.2,386.4 124.4,386.5 127.6,385.9 130.9,380.7 133.8,375.5 137.1,376.2 140.2,370.4 143.5,366.9 146.6,362.2 149.9,356.1 153.1,353.5 156.3,356.3 159.5,358.7 162.7,368.4 165.9,372.3 169.2,369.5 172.1,367.7 175.4,368.3 178.5,367.1 181.8,366.2 184.9,363.8 188.2,369.6 191.4,368.4 194.6,370.1 197.8,370.8 201.0,369.9 204.2,368.8 207.5,366.7 210.5,365.9 213.8,368.9 216.9,366.2 220.2,363.7 223.3,359.6 226.6,353.7 229.9,353.0 233.0,348.3 236.3,346.1 239.4,345.4 242.7,350.0 245.9,349.6 248.9,345.9 252.1,342.9 255.3,347.3 258.5,348.9 261.7,353.5 264.9,347.2 268.2,341.4 271.3,335.9 274.6,332.1 277.7,334.0 281.0,328.6 284.2,326.2 287.2,324.3 290.4,317.1 293.6,299.3 296.8,296.7 300.0,287.7 303.2,275.3 306.5,271.7 309.6,266.3 312.9,266.3 316.0,260.2 319.3,257.4 322.5,254.5 325.5,256.1 328.7,248.6 331.9,247.8 335.1,240.5 338.3,244.1 341.5,245.1 344.8,244.2 347.9,245.8 351.2,244.5 354.3,249.2 357.6,252.7 360.8,248.6 363.9,246.5 367.1,244.1 370.3,239.8 373.5,232.4 376.7,232.1 379.9,230.7 383.2,228.5 386.3,236.2 389.6,240.0 392.7,234.8 396.0,230.6 399.3,224.3 402.2,221.3 405.4,223.4 408.6,223.9 411.9,216.7 415.0,213.8 418.3,212.4 421.5,203.6 424.7,201.6 427.9,196.4 431.1,196.3 434.3,199.7 437.6,203.2 440.5,196.9 443.8,198.2 446.9,201.9 450.2,197.1 453.3,193.2 456.6,205.7 459.8,207.3 463.0,204.7 466.2,206.4 469.4,207.1 472.6,207.8 475.9,206.0 478.8,208.3 482.1,208.0 485.2,209.2 488.5,216.0 491.6,213.2 494.9,208.3 498.1,205.3 501.3,208.0 504.5,207.7 507.7,204.8 510.9,204.9 514.2,223.6 517.2,220.8 520.5,222.3 523.6,221.7 526.9,220.6 530.0,218.7 533.3,211.6 536.5,209.5 539.7,205.6 542.9,196.6 546.1,198.9 549.3,192.1 552.6,185.8 555.5,179.3 558.8,173.0 561.9,162.5 565.2,159.5 568.3,158.5 571.6,156.4 574.9,157.4 578.0,156.9 581.3,149.8 584.4,156.0 587.7,161.7 590.9,157.1 593.9,155.0 597.1,164.2 600.3,170.0 603.5,164.3 606.7,157.8 609.9,156.7 613.2,152.8 616.3,151.4 619.6,153.5 622.7,154.3 626.0,157.2 629.2,155.5 632.2,150.6 635.4,141.6 638.6,136.6 641.8,128.7 645.0,122.9 648.2,121.2 651.5,124.8 654.6,113.7 657.9,106.8 661.0,99.6 664.3,101.8 667.5,100.4 670.6,90.5 673.8,81.3 677.0,71.5 680.2,70.1 683.4,70.3 686.6,67.1 689.9,71.6 693.0,72.2 696.3,71.9 699.4,78.7 702.7,87.2 705.9,85.7 708.9,86.5 712.1,84.4 715.3,79.5 718.5,82.0 721.7,82.8 724.9,82.1 728.2,77.3 731.3,76.7 734.6,75.3 737.7,75.6 741.0,72.0 744.3,78.6 747.2,72.1 750.4,70.8 753.6,69.8 756.9,69.6 760.0,69.2" fill="none" stroke="#2563eb" stroke-width="2.2"/>
<rect x="776" y="73" width="14" height="14" rx="3" fill="#2563eb"/>
<text x="796" y="85" font-size="12" fill="#111">Base+regime (Calmar 0.82)</text>
<text x="796" y="100" font-size="11" fill="#6b7280">₹9cr</text>
<polyline points="70.0,412.1 73.3,421.8 76.5,449.8 79.7,454.0 82.9,447.5 86.1,450.1 89.3,453.7 92.6,445.6 95.5,432.9 98.8,410.3 101.9,413.6 105.2,406.5 108.3,406.0 111.6,398.1 114.8,405.0 118.0,399.0 121.2,396.0 124.4,401.8 127.6,401.1 130.9,395.2 133.8,394.7 137.1,398.1 140.2,394.1 143.5,393.2 146.6,392.6 149.9,382.5 153.1,382.7 156.3,385.1 159.5,381.0 162.7,390.8 165.9,393.7 169.2,385.6 172.1,386.9 175.4,391.4 178.5,388.5 181.8,391.2 184.9,399.6 188.2,400.7 191.4,393.9 194.6,402.7 197.8,406.8 201.0,396.1 204.2,392.9 207.5,394.4 210.5,395.2 213.8,401.0 216.9,394.7 220.2,395.5 223.3,395.0 226.6,387.6 229.9,389.0 233.0,384.8 236.3,384.5 239.4,382.5 242.7,387.8 245.9,388.0 248.9,384.1 252.1,383.2 255.3,385.4 258.5,387.0 261.7,391.4 264.9,387.1 268.2,378.6 271.3,380.4 274.6,378.5 277.7,381.6 281.0,378.9 284.2,372.9 287.2,373.0 290.4,366.0 293.6,361.3 296.8,360.0 300.0,357.3 303.2,357.2 306.5,353.2 309.6,350.3 312.9,353.6 316.0,348.0 319.3,347.6 322.5,351.3 325.5,354.7 328.7,351.9 331.9,352.6 335.1,350.9 338.3,357.1 341.5,357.3 344.8,356.0 347.9,357.5 351.2,357.4 354.3,361.9 357.6,369.1 360.8,359.8 363.9,358.5 367.1,354.9 370.3,353.5 373.5,349.7 376.7,348.2 379.9,350.0 383.2,349.8 386.3,354.2 389.6,354.7 392.7,350.6 396.0,347.2 399.3,344.3 402.2,343.0 405.4,339.9 408.6,340.9 411.9,335.7 415.0,337.2 418.3,338.3 421.5,333.4 424.7,334.4 427.9,331.7 431.1,327.5 434.3,332.0 437.6,335.4 440.5,329.9 443.8,329.9 446.9,330.1 450.2,324.8 453.3,322.2 456.6,328.3 459.8,332.9 463.0,328.7 466.2,328.9 469.4,329.1 472.6,329.4 475.9,322.7 478.8,321.7 482.1,320.4 485.2,321.4 488.5,326.7 491.6,327.5 494.9,323.9 498.1,320.7 501.3,319.3 504.5,318.5 507.7,320.1 510.9,326.0 514.2,350.2 517.2,337.7 520.5,340.3 523.6,333.7 526.9,327.1 530.0,324.5 533.3,325.7 536.5,322.5 539.7,312.7 542.9,305.8 546.1,308.1 549.3,302.3 552.6,301.3 555.5,301.7 558.8,295.9 561.9,295.1 565.2,294.9 568.3,287.3 571.6,284.7 574.9,284.5 578.0,288.1 581.3,286.1 584.4,286.2 587.7,289.1 590.9,285.5 593.9,287.4 597.1,290.2 600.3,294.8 603.5,287.1 606.7,284.0 609.9,287.5 613.2,282.7 616.3,279.0 619.6,282.2 622.7,284.5 626.0,286.4 629.2,286.1 632.2,282.4 635.4,280.1 638.6,276.9 641.8,274.3 645.0,276.6 648.2,274.8 651.5,277.5 654.6,272.6 657.9,265.6 661.0,265.6 664.3,264.5 667.5,263.1 670.6,262.0 673.8,262.3 677.0,256.5 680.2,253.0 683.4,252.0 686.6,249.9 689.9,255.8 693.0,256.0 696.3,257.9 699.4,258.4 702.7,264.0 705.9,258.4 708.9,255.3 712.1,253.7 715.3,250.9 718.5,253.7 721.7,254.9 724.9,254.2 728.2,250.2 731.3,248.5 734.6,248.8 737.7,251.6 741.0,252.2 744.3,263.1 747.2,256.5 750.4,258.3 753.6,257.0 756.9,255.1 760.0,255.1" fill="none" stroke="#f59e0b" stroke-width="2.2"/>
<rect x="776" y="95" width="14" height="14" rx="3" fill="#f59e0b"/>
<text x="796" y="107" font-size="12" fill="#111">Nifty 50 buy&hold</text>
<text x="796" y="122" font-size="11" fill="#6b7280">₹1cr</text>
<text x="70" y="492" font-size="10.5" fill="#9ca3af">Log scale · ₹20L start · survivorship-biased universe · educational only</text>
</svg>